<!--?xml version="1.0" standalone="no"?-->              <svg id="sw-js-blob-svg" viewBox="0 0 100 100" xmlns="http://www.w3.org/2000/svg">                    <defs>                         <linearGradient id="sw-gradient" x1="0" x2="1" y1="1" y2="0">                            <stop id="stop1" stop-color="rgba(248, 117, 55, 1)" offset="0%"></stop>                            <stop id="stop2" stop-color="rgba(251, 168, 31, 1)" offset="100%"></stop>                        </linearGradient>                    </defs>                <path fill="url(#sw-gradient)" d="M25.5,-36.2C31.8,-30.6,34.7,-21.4,36.7,-12.6C38.6,-3.8,39.6,4.7,38.1,13.3C36.6,21.9,32.6,30.6,25.8,36.6C19,42.6,9.5,45.8,0.5,45.1C-8.4,44.3,-16.9,39.6,-24.1,33.8C-31.4,28,-37.5,21,-39.4,13.2C-41.3,5.4,-39,-3.3,-35.4,-10.6C-31.7,-17.9,-26.7,-23.8,-20.5,-29.5C-14.4,-35.2,-7.2,-40.7,1.2,-42.4C9.6,-44.1,19.3,-41.9,25.5,-36.2Z" width="100%" height="100%" transform="translate(50 50)" style="transition: 0.3s;" stroke-width="0"></path>              </svg>
